# Blender 5.1.0
# www.blender.org
mtllib CarPark.mtl
o Cube
v 10.965921 0.174191 6.942909
v 11.438589 -0.174191 7.242171
v 10.965921 0.174191 -6.942909
v 11.438589 -0.174191 -7.242171
v -10.965921 0.174191 6.942909
v -11.438589 -0.174191 7.242171
v -10.965921 0.174191 -6.942909
v -11.438589 -0.174191 -7.242171
v 11.438589 0.174191 -7.242171
v -11.438589 0.174191 -7.242171
v 11.438589 0.174191 7.242171
v -11.438589 0.174191 7.242171
v -5.476705 0.174191 6.942909
v -5.679069 -0.174191 7.242171
v -2.996835 -0.174191 7.242171
v -2.996835 -0.174191 8.886567
v -5.679069 -0.174191 8.886567
v -5.509478 0.174191 8.839363
v -3.874039 -0.174191 9.396170
v -4.801865 -0.174191 9.396170
v -4.723093 0.174191 9.268044
v -3.166425 0.174191 8.839363
v -3.952810 0.174191 9.268044
v -5.679071 0.174191 7.242171
v -2.996831 0.174191 7.242171
v -2.996831 0.174191 8.886567
v -5.679071 0.174191 8.886567
v -4.801867 0.174191 9.396170
v -3.874035 0.174191 9.396170
v -3.199200 0.174191 7.242171
v -5.476703 0.174191 7.242171
v -3.199200 0.174191 6.942909
v -2.996831 0.174191 6.942909
v -5.679071 0.174191 6.942909
v 11.438589 0.506877 -7.242171
v -11.438589 0.506877 -7.242171
v 11.438589 0.506877 7.242171
v -11.438589 0.506877 7.242171
v -2.996831 0.506877 7.242171
v 10.965921 0.506877 -6.942909
v -10.965921 0.506877 -6.942909
v 10.965921 0.506877 6.942909
v -10.965921 0.506877 6.942909
v -2.996831 0.506877 6.942909
v -5.679071 0.506877 7.242171
v -3.199200 0.506877 7.242171
v -2.996831 0.506877 8.886567
v -5.679071 0.506877 8.886567
v -4.801867 0.506877 9.396170
v -3.874035 0.506877 9.396170
v -5.679071 0.506877 6.942909
v -5.476705 0.506877 6.942909
v -3.952810 0.506877 9.268044
v -3.166425 0.506877 8.839363
v -4.723093 0.506877 9.268044
v -5.509478 0.506877 8.839363
v -5.476703 0.506877 7.242171
v -3.199200 0.506877 6.942909
vn -0.0000 1.0000 -0.0000
vn -0.0000 -0.0000 -1.0000
vn -1.0000 -0.0000 -0.0000
vn -0.0000 -1.0000 -0.0000
vn 1.0000 -0.0000 -0.0000
vn -0.0000 -0.0000 1.0000
vn -0.9998 -0.0000 0.0205
vn -0.5023 -0.0000 0.8647
vn 0.5023 -0.0000 0.8647
vn -0.2681 -0.0000 0.9634
vn 0.2681 -0.0000 0.9634
vn 0.9998 -0.0000 0.0205
vn -0.4786 -0.0000 -0.8780
vn 0.4786 -0.0000 -0.8780
vt 0.809849 0.505165
vt 0.812060 0.505165
vt 0.630165 0.744835
vt 0.625000 0.750000
vt 0.375000 1.000000
vt 0.375000 0.750000
vt 0.625000 0.000000
vt 0.375000 0.250000
vt 0.375000 0.000000
vt 0.217251 0.500000
vt 0.125000 0.750000
vt 0.625000 0.500000
vt 0.375000 0.500000
vt 0.625000 0.312940
vt 0.375000 0.312940
vt 0.625000 1.000000
vt 0.784961 0.500000
vt 0.784244 0.500000
vt 0.625000 0.342251
vt 0.187940 0.500000
vt 0.375000 0.342251
vt 0.625000 0.322526
vt 0.625000 0.332665
vt 0.207665 0.500000
vt 0.375000 0.332665
vt 0.375000 0.322526
vt 0.801614 0.500000
vt 0.809849 0.500000
vt 0.784961 0.500000
vt 0.782749 0.500000
vt 0.784961 0.505165
vt 0.630165 0.505165
vt 0.782749 0.505165
vt 0.869835 0.505165
vt 0.869835 0.744835
vt 0.812060 0.500000
vt 0.810565 0.500000
vt 0.875000 0.750000
vt 0.875000 0.500000
vt 0.802474 0.500000
vt 0.792335 0.500000
vt 0.793196 0.500000
vt 0.809849 0.500000
vt 0.625000 0.250000
vt 0.125000 0.500000
vt 0.197526 0.500000
s 0
usemtl Material.001
f 13/1/1 3/3/1 34/2/1
f 9/4/2 4/6/2 8/5/2
f 10/7/3 8/9/3 6/8/3
f 15/10/4 8/11/4 4/6/4
f 11/12/5 2/13/5 4/6/5
f 6/8/6 14/15/6 24/14/6
f 9/4/2 10/16/2 36/16/2
f 30/17/7 22/18/7 54/18/7
f 24/14/3 27/14/3 48/14/3
f 26/19/5 25/19/5 39/19/5
f 14/20/4 15/10/4 16/10/4
f 25/19/6 15/21/6 2/13/6
f 24/14/3 14/15/3 17/15/3
f 15/21/5 25/19/5 26/19/5
f 28/22/8 27/14/8 17/15/8
f 16/21/9 26/19/9 29/23/9
f 17/20/4 16/10/4 19/24/4
f 28/22/6 20/26/6 19/25/6
f 22/18/1 31/28/1 21/27/1
f 28/22/6 29/23/6 50/23/6
f 22/29/10 26/30/10 47/30/10
f 31/28/1 30/17/1 32/31/1
f 1/32/2 33/33/2 44/33/2
f 5/34/5 7/35/5 41/35/5
f 3/3/3 1/32/3 42/32/3
f 27/36/11 18/37/11 56/37/11
f 34/2/2 5/34/2 43/34/2
f 41/35/1 40/3/1 35/4/1
f 40/3/1 42/32/1 37/12/1
f 43/34/1 41/35/1 36/38/1
f 43/34/1 38/39/1 45/36/1
f 56/37/1 48/36/1 49/40/1
f 54/18/1 53/42/1 50/41/1
f 53/42/1 55/27/1 49/40/1
f 54/29/1 47/30/1 39/30/1
f 56/43/1 57/28/1 45/36/1
f 46/17/1 39/30/1 44/33/1
f 39/30/1 37/12/1 42/32/1
f 45/36/1 57/28/1 52/1/1
f 27/14/8 28/22/8 49/22/8
f 12/44/6 24/14/6 45/14/6
f 13/1/2 34/2/2 51/2/2
f 11/12/5 9/4/5 35/4/5
f 18/43/12 31/28/12 57/28/12
f 22/18/13 23/42/13 53/42/13
f 23/42/2 21/27/2 55/27/2
f 10/7/3 12/44/3 38/44/3
f 32/31/3 30/17/3 46/17/3
f 25/19/6 11/12/6 37/12/6
f 29/23/9 26/19/9 47/19/9
f 33/33/2 32/31/2 58/31/2
f 31/28/5 13/1/5 52/1/5
f 21/27/14 18/43/14 56/43/14
f 7/35/6 3/3/6 40/3/6
f 3/3/1 33/33/1 1/32/1
f 3/3/1 32/31/1 33/33/1
f 5/34/1 3/3/1 7/35/1
f 34/2/1 3/3/1 5/34/1
f 3/3/1 13/1/1 32/31/1
f 9/4/2 8/5/2 10/16/2
f 10/7/3 6/8/3 12/44/3
f 8/11/4 14/20/4 6/45/4
f 15/10/4 4/6/4 2/13/4
f 8/11/4 15/10/4 14/20/4
f 11/12/5 4/6/5 9/4/5
f 6/8/6 24/14/6 12/44/6
f 9/4/2 36/16/2 35/4/2
f 30/17/7 54/18/7 46/17/7
f 24/14/3 48/14/3 45/14/3
f 26/19/5 39/19/5 47/19/5
f 14/20/4 16/10/4 17/20/4
f 25/19/6 2/13/6 11/12/6
f 24/14/3 17/15/3 27/14/3
f 15/21/5 26/19/5 16/21/5
f 28/22/8 17/15/8 20/26/8
f 16/21/9 29/23/9 19/25/9
f 17/20/4 19/24/4 20/46/4
f 28/22/6 19/25/6 29/23/6
f 31/28/1 22/18/1 30/17/1
f 22/18/1 21/27/1 23/42/1
f 21/27/1 31/28/1 18/43/1
f 28/22/6 50/23/6 49/22/6
f 22/29/10 47/30/10 54/29/10
f 31/28/1 32/31/1 13/1/1
f 1/32/2 44/33/2 42/32/2
f 5/34/5 41/35/5 43/34/5
f 3/3/3 42/32/3 40/3/3
f 27/36/11 56/37/11 48/36/11
f 34/2/2 43/34/2 51/2/2
f 41/35/1 35/4/1 36/38/1
f 40/3/1 37/12/1 35/4/1
f 43/34/1 36/38/1 38/39/1
f 43/34/1 45/36/1 51/2/1
f 56/37/1 49/40/1 55/27/1
f 54/18/1 50/41/1 47/30/1
f 53/42/1 49/40/1 50/41/1
f 54/29/1 39/30/1 46/17/1
f 56/43/1 45/36/1 48/36/1
f 46/17/1 44/33/1 58/31/1
f 39/30/1 42/32/1 44/33/1
f 45/36/1 52/1/1 51/2/1
f 27/14/8 49/22/8 48/14/8
f 12/44/6 45/14/6 38/44/6
f 13/1/2 51/2/2 52/1/2
f 11/12/5 35/4/5 37/12/5
f 18/43/12 57/28/12 56/43/12
f 22/18/13 53/42/13 54/18/13
f 23/42/2 55/27/2 53/42/2
f 10/7/3 38/44/3 36/7/3
f 32/31/3 46/17/3 58/31/3
f 25/19/6 37/12/6 39/19/6
f 29/23/9 47/19/9 50/23/9
f 33/33/2 58/31/2 44/33/2
f 31/28/5 52/1/5 57/28/5
f 21/27/14 56/43/14 55/27/14
f 7/35/6 40/3/6 41/35/6
