# Blender 5.1.1
# www.blender.org
mtllib CarWindowExport.mtl
o ventura
v 0.302740 0.201611 0.223742
v 0.309792 0.149135 -0.528034
v 0.246011 0.325954 0.072017
v 0.086254 0.215012 0.248961
v 0.165161 0.336781 0.078781
v 0.151900 0.295792 -0.420728
v 0.152696 0.170188 -0.624476
v 0.279440 0.161105 -0.620847
v 0.239182 0.285082 -0.418429
v 0.269468 0.307205 0.052284
v 0.265264 0.318869 0.025935
v 0.265366 0.317912 -0.060555
v 0.324866 0.189630 0.184187
v 0.264078 0.302738 -0.206555
v 0.318986 0.157375 -0.175615
v 0.295453 0.190407 -0.488010
v 0.268140 0.274170 -0.359551
v 0.283336 0.233654 -0.433807
v 0.264373 0.289745 -0.273081
v 0.311389 0.161207 -0.252410
v 0.180747 0.210588 0.241307
v 0.019631 0.341709 0.084973
v 0.042178 0.340945 0.084014
v 0.031354 0.299606 -0.419962
v 0.028347 0.173934 -0.623374
v 0.020334 0.217115 0.252191
v -0.218465 0.292805 -0.410751
v -0.269649 0.170372 -0.611634
v -0.140483 0.216009 0.246697
v -0.002948 0.341707 0.084771
v -0.010433 0.300311 -0.419260
v -0.142863 0.175176 -0.619517
v -0.130997 0.300567 -0.415981
v -0.232184 0.315671 0.060701
v -0.235631 0.311172 -0.198171
v -0.231509 0.326299 -0.052218
v -0.294343 0.167726 -0.165324
v -0.228474 0.327202 0.034219
v -0.287061 0.199958 0.194455
v -0.280200 0.200122 -0.478352
v -0.289201 0.171344 -0.242333
v -0.245783 0.282844 -0.350928
v -0.264820 0.242906 -0.424610
v -0.238595 0.298234 -0.264642
v -0.297257 0.159381 -0.517849
v -0.207459 0.333607 0.079625
v -0.126108 0.341697 0.083668
v -0.263229 0.211163 0.233239
v -0.018491 0.174725 -0.622588
v 0.010462 0.300267 -0.419829
v 0.004930 0.174640 -0.623166
v -0.045690 0.217239 0.251175
vn 0.1517 0.7886 0.5959
vn 0.1063 0.7939 0.5988
vn 0.1169 0.7909 0.6006
vn 0.1438 0.7911 0.5945
vn 0.0527 0.8007 0.5968
vn 0.0661 0.7971 0.6003
vn 0.0214 0.8506 -0.5253
vn 0.0235 0.8503 -0.5258
vn 0.0691 0.8491 -0.5237
vn 0.0536 0.8533 -0.5187
vn 0.1054 0.8491 -0.5177
vn 0.0760 0.8570 -0.5098
vn 0.9375 0.3455 -0.0414
vn 0.9942 -0.1071 0.0024
vn 0.9207 0.3899 -0.0182
vn 0.8618 0.5002 0.0839
vn 0.9270 0.3737 -0.0321
vn 0.9377 0.3444 -0.0462
vn 0.9425 0.3335 -0.0215
vn 0.9146 0.4031 -0.0328
vn 0.9370 0.3491 -0.0113
vn 0.9421 0.3350 -0.0119
vn 0.9410 0.3363 -0.0374
vn 0.8483 0.4898 -0.2012
vn 0.0236 0.8017 0.5973
vn 0.0236 0.8016 0.5974
vn 0.0055 0.8508 -0.5255
vn 0.0055 0.8506 -0.5257
vn -0.1049 0.7929 0.6002
vn -0.0970 0.7952 0.5986
vn -0.0699 0.7941 0.6038
vn -0.0593 0.7967 0.6015
vn -0.0190 0.7985 0.6017
vn -0.0056 0.8017 0.5978
vn -0.0103 0.8512 -0.5248
vn -0.0422 0.8549 -0.5170
vn -0.0580 0.8512 -0.5216
vn -0.0124 0.8509 -0.5252
vn -0.0940 0.8524 -0.5143
vn -0.0641 0.8593 -0.5074
vn -0.9144 0.4048 -0.0012
vn -0.8412 0.5289 0.1125
vn -0.9071 0.4208 0.0125
vn -0.9967 -0.0735 0.0358
vn -0.9262 0.3770 -0.0101
vn -0.9266 0.3758 -0.0149
vn -0.9245 0.3806 0.0199
vn -0.9010 0.4337 -0.0023
vn -0.9309 0.3651 0.0099
vn -0.9302 0.3666 0.0195
vn -0.9299 0.3679 -0.0060
vn -0.8375 0.5183 -0.1729
vt 0.415061 0.229994
vt 0.417504 0.196646
vt 0.481325 0.202806
vt 0.474794 0.253123
vt 0.418854 0.146041
vt 0.483881 0.163890
vt 0.124546 0.146393
vt 0.211003 0.145354
vt 0.211476 0.194925
vt 0.124911 0.197528
vt 0.212802 0.230853
vt 0.127108 0.249653
vt 0.914140 0.514255
vt 0.853802 0.514658
vt 0.818383 0.511605
vt 0.808035 0.505811
vt 0.758326 0.452806
vt 0.906839 0.453899
vt 0.524943 0.419229
vt 0.493627 0.433991
vt 0.457805 0.438305
vt 0.452018 0.385377
vt 0.565411 0.386958
vt 0.548117 0.402849
vt 0.419101 0.136763
vt 0.484776 0.136763
vt 0.124477 0.136763
vt 0.210921 0.136763
vt 0.415061 0.043532
vt 0.474794 0.020403
vt 0.481325 0.070720
vt 0.417504 0.076880
vt 0.483881 0.109636
vt 0.418854 0.127485
vt 0.124546 0.127134
vt 0.124911 0.075998
vt 0.211476 0.078601
vt 0.211003 0.128172
vt 0.212802 0.042674
vt 0.127108 0.023873
vt 0.160175 0.891451
vt 0.110368 0.944364
vt 0.100009 0.950140
vt 0.064585 0.953127
vt 0.004248 0.952613
vt 0.011660 0.892270
vt 0.290685 0.613932
vt 0.254863 0.609619
vt 0.223547 0.594856
vt 0.296472 0.561005
vt 0.183079 0.562585
vt 0.200372 0.578477
s 1
usemtl Material_#69
f 3/1/1 5/2/2 21/3/3
f 21/3/3 1/4/4 3/1/1
f 5/2/2 23/5/5 4/6/6
f 4/6/6 21/3/3 5/2/2
f 25/7/7 24/8/8 6/9/9
f 6/9/9 7/10/10 25/7/7
f 9/11/11 8/12/12 7/10/10
f 7/10/10 6/9/9 9/11/11
f 14/13/13 12/14/14 11/15/15
f 11/15/15 10/16/16 13/17/17
f 14/13/13 11/15/15 13/17/17
f 15/18/18 14/13/13 13/17/17
f 18/19/19 17/20/20 19/21/21
f 18/19/19 19/21/21 20/22/22
f 18/19/19 20/22/22 2/23/23
f 16/24/24 18/19/19 2/23/23
f 23/5/5 22/25/25 26/26/26
f 26/26/26 4/6/6 23/5/5
f 51/27/27 50/28/28 24/8/8
f 24/8/8 25/7/7 51/27/27
f 46/29/29 48/30/30 29/31/31
f 29/31/31 47/32/32 46/29/29
f 47/32/32 29/31/31 52/33/33
f 52/33/33 30/34/34 47/32/32
f 49/35/35 32/36/36 33/37/37
f 33/37/37 31/38/38 49/35/35
f 27/39/39 33/37/37 32/36/36
f 32/36/36 28/40/40 27/39/39
f 39/41/41 34/42/42 38/43/43
f 38/43/43 36/44/44 35/45/45
f 39/41/41 38/43/43 35/45/45
f 37/46/46 39/41/41 35/45/45
f 44/47/47 42/48/48 43/49/49
f 41/50/50 44/47/47 43/49/49
f 45/51/51 41/50/50 43/49/49
f 40/52/52 45/51/51 43/49/49
f 30/34/34 52/33/33 26/26/26
f 26/26/26 22/25/25 30/34/34
f 51/27/27 49/35/35 31/38/38
f 31/38/38 50/28/28 51/27/27
