# Blender 5.1.1
# www.blender.org
mtllib PlaneExport2.mtl
o Cube
v 1.600000 -0.900000 -0.050000
v 1.600000 0.900000 -0.050000
v 1.600000 -0.900000 0.050000
v 1.600000 0.900000 0.050000
v -1.600000 -0.900000 -0.050000
v -1.600000 0.900000 -0.050000
v -1.600000 -0.900000 0.050000
v -1.600000 0.900000 0.050000
v 1.600000 -0.900000 0.000000
v 1.600000 0.000000 -0.050000
v 1.600000 0.900000 0.000000
v 1.600000 0.000000 0.050000
v 0.000000 -0.900000 0.050000
v 0.000000 0.900000 0.050000
v -1.600000 0.000000 0.050000
v -1.600000 -0.900000 0.000000
v -1.600000 0.900000 0.000000
v -1.600000 0.000000 -0.050000
v 0.000000 -0.900000 -0.050000
v 0.000000 0.900000 -0.050000
v 0.000000 0.900000 0.000000
v 0.000000 -0.900000 0.000000
v 0.000000 0.000000 -0.050000
v -1.600000 0.000000 0.000000
v 0.000000 0.000000 0.050000
v 1.600000 0.000000 0.000000
v 1.600000 -0.900000 -0.025000
v 1.600000 0.450000 -0.050000
v 1.600000 0.900000 0.025000
v 1.600000 -0.450000 0.050000
v 0.800000 -0.900000 0.050000
v -0.800000 0.900000 0.050000
v -1.600000 -0.450000 0.050000
v -1.600000 -0.900000 0.025000
v -1.600000 0.900000 -0.025000
v -1.600000 -0.450000 -0.050000
v -0.800000 -0.900000 -0.050000
v 0.800000 0.900000 -0.050000
v 1.600000 -0.900000 0.025000
v 1.600000 -0.450000 -0.050000
v 1.600000 0.900000 -0.025000
v 1.600000 0.450000 0.050000
v -0.800000 -0.900000 0.050000
v 0.800000 0.900000 0.050000
v -1.600000 0.450000 0.050000
v -1.600000 -0.900000 -0.025000
v -1.600000 0.900000 0.025000
v -1.600000 0.450000 -0.050000
v 0.800000 -0.900000 -0.050000
v -0.800000 0.900000 -0.050000
v 0.000000 0.900000 -0.025000
v 0.000000 0.900000 0.025000
v -0.800000 0.900000 0.000000
v 0.800000 0.900000 0.000000
v 0.000000 -0.900000 -0.025000
v 0.000000 -0.900000 0.025000
v 0.800000 -0.900000 0.000000
v -0.800000 -0.900000 0.000000
v 0.800000 0.000000 -0.050000
v -0.800000 0.000000 -0.050000
v 0.000000 -0.450000 -0.050000
v 0.000000 0.450000 -0.050000
v -1.600000 0.000000 -0.025000
v -1.600000 0.000000 0.025000
v -1.600000 -0.450000 0.000000
v -1.600000 0.450000 0.000000
v -0.800000 0.000000 0.050000
v 0.800000 0.000000 0.050000
v 0.000000 -0.450000 0.050000
v 0.000000 0.450000 0.050000
v 1.600000 0.000000 0.025000
v 1.600000 0.000000 -0.025000
v 1.600000 -0.450000 0.000000
v 1.600000 0.450000 0.000000
v 1.600000 0.450000 -0.025000
v 1.600000 -0.450000 -0.025000
v 1.600000 -0.450000 0.025000
v 0.800000 0.450000 0.050000
v 0.800000 -0.450000 0.050000
v -0.800000 -0.450000 0.050000
v -1.600000 0.450000 0.025000
v -1.600000 -0.450000 0.025000
v -1.600000 -0.450000 -0.025000
v -0.800000 0.450000 -0.050000
v -0.800000 -0.450000 -0.050000
v 0.800000 -0.450000 -0.050000
v -0.800000 -0.900000 0.025000
v 0.800000 -0.900000 0.025000
v 0.800000 -0.900000 -0.025000
v 0.800000 0.900000 0.025000
v -0.800000 0.900000 0.025000
v -0.800000 0.900000 -0.025000
v 0.800000 0.900000 -0.025000
v -0.800000 -0.900000 -0.025000
v 0.800000 0.450000 -0.050000
v -1.600000 0.450000 -0.025000
v -0.800000 0.450000 0.050000
v 1.600000 0.450000 0.025000
vn 1.0000 -0.0000 -0.0000
vn -0.0000 -0.0000 1.0000
vn -1.0000 -0.0000 -0.0000
vn -0.0000 -0.0000 -1.0000
vn -0.0000 -1.0000 -0.0000
vn -0.0000 1.0000 -0.0000
vt 0.250000 0.166667
vt 0.270833 -0.000000
vt 0.270833 0.166667
vt 0.333333 0.166667
vt 0.354167 -0.000000
vt 0.354167 0.166667
vt 0.416667 0.166667
vt 0.437500 -0.000000
vt 0.437500 0.166667
vt 0.254150 0.993981
vt 0.006698 0.748487
vt 0.254150 0.748487
vt 0.604167 0.666667
vt 0.583333 0.500000
vt 0.604167 0.500000
vt 0.687500 0.666667
vt 0.666667 0.500000
vt 0.687500 0.500000
vt 0.687500 0.333333
vt 0.666667 0.166667
vt 0.687500 0.166667
vt 0.729167 0.333333
vt 0.708333 0.166667
vt 0.729167 0.166667
vt 0.729167 0.666667
vt 0.708333 0.500000
vt 0.729167 0.500000
vt 0.604167 0.333333
vt 0.583333 0.166667
vt 0.604167 0.166667
vt 0.645833 0.333333
vt 0.625000 0.166667
vt 0.645833 0.166667
vt 0.645833 0.666667
vt 0.625000 0.500000
vt 0.645833 0.500000
vt 0.254150 0.502994
vt 0.006698 0.257500
vt 0.254150 0.257500
vt 0.749053 0.502994
vt 0.501602 0.257500
vt 0.749053 0.257500
vt 0.749053 0.993981
vt 0.501602 0.748487
vt 0.749053 0.748487
vt 0.458333 0.166667
vt 0.479167 0.000000
vt 0.479167 0.166667
vt 0.458333 0.500000
vt 0.479167 0.333333
vt 0.479167 0.500000
vt 0.416667 0.500000
vt 0.437500 0.333333
vt 0.437500 0.500000
vt 0.375000 0.166667
vt 0.395833 0.000000
vt 0.395833 0.166667
vt 0.375000 0.500000
vt 0.395833 0.333333
vt 0.395833 0.500000
vt 0.333333 0.500000
vt 0.354167 0.333333
vt 0.354167 0.500000
vt 0.291667 0.166667
vt 0.312500 -0.000000
vt 0.312500 0.166667
vt 0.291667 0.500000
vt 0.312500 0.333333
vt 0.312500 0.500000
vt 0.250000 0.500000
vt 0.270833 0.333333
vt 0.270833 0.500000
vt 0.291667 0.333333
vt 0.270833 0.666667
vt 0.291667 0.666667
vt 0.250000 0.666667
vt 0.333333 0.333333
vt 0.333333 0.500000
vt 0.312500 0.666667
vt 0.333333 0.666667
vt 0.333333 0.000000
vt 0.333333 0.166667
vt 0.375000 0.333333
vt 0.354167 0.666667
vt 0.375000 0.666667
vt 0.333333 0.666667
vt 0.416667 0.333333
vt 0.395833 0.666667
vt 0.416667 0.666667
vt 0.416667 0.000000
vt 0.416667 0.166667
vt 0.458333 0.333333
vt 0.437500 0.666667
vt 0.458333 0.666667
vt 0.416667 0.666667
vt 0.500000 0.333333
vt 0.500000 0.500000
vt 0.479167 0.666667
vt 0.500000 0.666667
vt 0.500000 0.000000
vt 0.500000 0.166667
vt 0.501602 0.502994
vt 0.996506 0.748487
vt 0.996506 0.502994
vt 0.996505 0.993981
vt 0.501602 0.012006
vt 0.749054 0.012006
vt 0.996506 0.257500
vt 0.996506 0.012006
vt 0.006698 0.012006
vt 0.254150 0.012006
vt 0.625000 0.333333
vt 0.666667 0.333333
vt 0.666667 0.666667
vt 0.625000 -0.000000
vt 0.645833 0.000000
vt 0.666667 0.166667
vt 0.666667 0.000000
vt 0.583333 -0.000000
vt 0.604167 -0.000000
vt 0.708333 0.333333
vt 0.750000 0.500000
vt 0.750000 0.333333
vt 0.750000 0.666667
vt 0.708333 -0.000000
vt 0.729167 0.000000
vt 0.750000 0.166667
vt 0.750000 0.000000
vt 0.666667 -0.000000
vt 0.687500 -0.000000
vt 0.708333 0.666667
vt 0.583333 0.333333
vt 0.625000 0.666667
vt 0.006698 0.502994
vt 0.501602 0.993981
vt 0.458333 0.000000
vt 0.375000 -0.000000
vt 0.333333 0.333333
vt 0.291667 -0.000000
vt 0.250000 0.333333
vt 0.250000 -0.000000
vt 0.333333 -0.000000
vt 0.416667 -0.000000
vt 0.006697 0.993981
s 0
usemtl Material.001
f 29/1/1 42/2/1 98/3/1
f 32/4/2 45/5/2 97/6/2
f 35/7/3 48/8/3 96/9/3
f 38/10/4 28/11/4 95/12/4
f 46/13/5 37/14/5 94/15/5
f 41/16/6 38/17/6 93/18/6
f 51/19/6 50/20/6 92/21/6
f 52/22/6 53/23/6 91/24/6
f 29/25/6 54/26/6 90/27/6
f 55/28/5 49/29/5 89/30/5
f 56/31/5 57/32/5 88/33/5
f 34/34/5 58/35/5 87/36/5
f 59/37/4 40/38/4 86/39/4
f 60/40/4 61/41/4 85/42/4
f 50/43/4 62/44/4 84/45/4
f 63/46/3 36/47/3 83/48/3
f 64/49/3 65/50/3 82/51/3
f 47/52/3 66/53/3 81/54/3
f 67/55/2 33/56/2 80/57/2
f 68/58/2 69/59/2 79/60/2
f 44/61/2 70/62/2 78/63/2
f 71/64/1 30/65/1 77/66/1
f 72/67/1 73/68/1 76/69/1
f 41/70/1 74/71/1 75/72/1
f 75/72/1 26/73/1 72/67/1
f 28/74/1 72/67/1 10/75/1
f 2/76/1 75/72/1 28/74/1
f 76/69/1 9/77/1 27/78/1
f 40/79/1 27/78/1 1/80/1
f 10/75/1 76/69/1 40/79/1
f 77/66/1 3/81/1 39/82/1
f 73/68/1 39/82/1 9/77/1
f 26/73/1 77/66/1 73/68/1
f 78/63/2 25/83/2 68/58/2
f 42/84/2 68/58/2 12/85/2
f 4/86/2 78/63/2 42/84/2
f 79/60/2 13/87/2 31/52/2
f 30/88/2 31/52/2 3/89/2
f 12/85/2 79/60/2 30/88/2
f 80/57/2 7/90/2 43/91/2
f 69/59/2 43/91/2 13/87/2
f 25/83/2 80/57/2 69/59/2
f 81/54/3 24/92/3 64/49/3
f 45/93/3 64/49/3 15/94/3
f 8/95/3 81/54/3 45/93/3
f 82/51/3 16/96/3 34/97/3
f 33/98/3 34/97/3 7/99/3
f 15/94/3 82/51/3 33/98/3
f 83/48/3 5/100/3 46/101/3
f 65/50/3 46/101/3 16/96/3
f 24/92/3 83/48/3 65/50/3
f 84/45/4 23/102/4 60/40/4
f 48/103/4 60/40/4 18/104/4
f 6/105/4 84/45/4 48/103/4
f 85/42/4 19/106/4 37/107/4
f 36/108/4 37/107/4 5/109/4
f 18/104/4 85/42/4 36/108/4
f 86/39/4 1/110/4 49/111/4
f 61/41/4 49/111/4 19/106/4
f 23/102/4 86/39/4 61/41/4
f 87/36/5 22/112/5 56/31/5
f 43/17/5 56/31/5 13/113/5
f 7/114/5 87/36/5 43/17/5
f 88/33/5 9/115/5 39/116/5
f 31/117/5 39/116/5 3/118/5
f 13/113/5 88/33/5 31/117/5
f 89/30/5 1/119/5 27/120/5
f 57/32/5 27/120/5 9/115/5
f 22/112/5 89/30/5 57/32/5
f 90/27/6 21/121/6 52/22/6
f 44/122/6 52/22/6 14/123/6
f 4/124/6 90/27/6 44/122/6
f 91/24/6 17/125/6 47/126/6
f 32/127/6 47/126/6 8/128/6
f 14/123/6 91/24/6 32/127/6
f 92/21/6 6/129/6 35/130/6
f 53/23/6 35/130/6 17/125/6
f 21/121/6 92/21/6 53/23/6
f 93/18/6 20/113/6 51/19/6
f 54/26/6 51/19/6 21/121/6
f 11/131/6 93/18/6 54/26/6
f 94/15/5 19/132/5 55/28/5
f 58/35/5 55/28/5 22/112/5
f 16/133/5 94/15/5 58/35/5
f 95/12/4 10/134/4 59/37/4
f 62/44/4 59/37/4 23/102/4
f 20/135/4 95/12/4 62/44/4
f 96/9/3 18/136/3 63/46/3
f 66/53/3 63/46/3 24/92/3
f 17/87/3 96/9/3 66/53/3
f 97/6/2 15/137/2 67/55/2
f 70/62/2 67/55/2 25/83/2
f 14/138/2 97/6/2 70/62/2
f 98/3/1 12/139/1 71/64/1
f 74/71/1 71/64/1 26/73/1
f 11/140/1 98/3/1 74/71/1
f 29/1/1 4/141/1 42/2/1
f 32/4/2 8/142/2 45/5/2
f 35/7/3 6/143/3 48/8/3
f 38/10/4 2/144/4 28/11/4
f 46/13/5 5/109/5 37/14/5
f 41/16/6 2/114/6 38/17/6
f 51/19/6 20/113/6 50/20/6
f 52/22/6 21/121/6 53/23/6
f 29/25/6 11/131/6 54/26/6
f 55/28/5 19/132/5 49/29/5
f 56/31/5 22/112/5 57/32/5
f 34/34/5 16/133/5 58/35/5
f 59/37/4 10/134/4 40/38/4
f 60/40/4 23/102/4 61/41/4
f 50/43/4 20/135/4 62/44/4
f 63/46/3 18/136/3 36/47/3
f 64/49/3 24/92/3 65/50/3
f 47/52/3 17/87/3 66/53/3
f 67/55/2 15/137/2 33/56/2
f 68/58/2 25/83/2 69/59/2
f 44/61/2 14/138/2 70/62/2
f 71/64/1 12/139/1 30/65/1
f 72/67/1 26/73/1 73/68/1
f 41/70/1 11/140/1 74/71/1
f 75/72/1 74/71/1 26/73/1
f 28/74/1 75/72/1 72/67/1
f 2/76/1 41/70/1 75/72/1
f 76/69/1 73/68/1 9/77/1
f 40/79/1 76/69/1 27/78/1
f 10/75/1 72/67/1 76/69/1
f 77/66/1 30/65/1 3/81/1
f 73/68/1 77/66/1 39/82/1
f 26/73/1 71/64/1 77/66/1
f 78/63/2 70/62/2 25/83/2
f 42/84/2 78/63/2 68/58/2
f 4/86/2 44/61/2 78/63/2
f 79/60/2 69/59/2 13/87/2
f 30/88/2 79/60/2 31/52/2
f 12/85/2 68/58/2 79/60/2
f 80/57/2 33/56/2 7/90/2
f 69/59/2 80/57/2 43/91/2
f 25/83/2 67/55/2 80/57/2
f 81/54/3 66/53/3 24/92/3
f 45/93/3 81/54/3 64/49/3
f 8/95/3 47/52/3 81/54/3
f 82/51/3 65/50/3 16/96/3
f 33/98/3 82/51/3 34/97/3
f 15/94/3 64/49/3 82/51/3
f 83/48/3 36/47/3 5/100/3
f 65/50/3 83/48/3 46/101/3
f 24/92/3 63/46/3 83/48/3
f 84/45/4 62/44/4 23/102/4
f 48/103/4 84/45/4 60/40/4
f 6/105/4 50/43/4 84/45/4
f 85/42/4 61/41/4 19/106/4
f 36/108/4 85/42/4 37/107/4
f 18/104/4 60/40/4 85/42/4
f 86/39/4 40/38/4 1/110/4
f 61/41/4 86/39/4 49/111/4
f 23/102/4 59/37/4 86/39/4
f 87/36/5 58/35/5 22/112/5
f 43/17/5 87/36/5 56/31/5
f 7/114/5 34/34/5 87/36/5
f 88/33/5 57/32/5 9/115/5
f 31/117/5 88/33/5 39/116/5
f 13/113/5 56/31/5 88/33/5
f 89/30/5 49/29/5 1/119/5
f 57/32/5 89/30/5 27/120/5
f 22/112/5 55/28/5 89/30/5
f 90/27/6 54/26/6 21/121/6
f 44/122/6 90/27/6 52/22/6
f 4/124/6 29/25/6 90/27/6
f 91/24/6 53/23/6 17/125/6
f 32/127/6 91/24/6 47/126/6
f 14/123/6 52/22/6 91/24/6
f 92/21/6 50/20/6 6/129/6
f 53/23/6 92/21/6 35/130/6
f 21/121/6 51/19/6 92/21/6
f 93/18/6 38/17/6 20/113/6
f 54/26/6 93/18/6 51/19/6
f 11/131/6 41/16/6 93/18/6
f 94/15/5 37/14/5 19/132/5
f 58/35/5 94/15/5 55/28/5
f 16/133/5 46/13/5 94/15/5
f 95/12/4 28/11/4 10/134/4
f 62/44/4 95/12/4 59/37/4
f 20/135/4 38/10/4 95/12/4
f 96/9/3 48/8/3 18/136/3
f 66/53/3 96/9/3 63/46/3
f 17/87/3 35/7/3 96/9/3
f 97/6/2 45/5/2 15/137/2
f 70/62/2 97/6/2 67/55/2
f 14/138/2 32/4/2 97/6/2
f 98/3/1 42/2/1 12/139/1
f 74/71/1 98/3/1 71/64/1
f 11/140/1 29/1/1 98/3/1
